<svg xmlns="http://www.w3.org/2000/svg" viewBox="0 0 98 96" role="img" aria-label="GitHub">
  <path fill="#ffffff" d="M49 0C21.9 0 0 22 0 49.2c0 21.8 14 40.3 33.5 46.8 2.5.5 3.4-1.1 3.4-2.4 0-1.2-.1-5.2-.1-9.4-13.6 3-16.5-5.8-16.5-5.8-2.2-5.8-5.5-7.3-5.5-7.3-4.5-3.1.3-3 .3-3 5 .4 7.7 5.2 7.7 5.2 4.4 7.7 11.6 5.5 14.4 4.2.4-3.2 1.7-5.5 3.1-6.8-10.8-1.2-22.2-5.5-22.2-24.5 0-5.4 1.9-9.8 5.1-13.3-.5-1.3-2.2-6.3.5-13.2 0 0 4.2-1.4 13.7 5.1a46.9 46.9 0 0 1 25 0c9.5-6.5 13.7-5.1 13.7-5.1 2.7 6.9 1 11.9.5 13.2 3.2 3.5 5.1 7.9 5.1 13.3 0 19-11.4 23.3-22.3 24.5 1.8 1.5 3.3 4.4 3.3 9 0 6.5-.1 11.7-.1 13.3 0 1.3.9 3 3.5 2.4A49.2 49.2 0 0 0 98 49.2C98 22 76.1 0 49 0z"/>
</svg>
